<svg version="1.1" viewBox="0.0 0.0 123.86351706036746 118.32283464566929" fill="none" stroke="none" stroke-linecap="square" stroke-miterlimit="10" xmlns:xlink="http://www.w3.org/1999/xlink" xmlns="http://www.w3.org/2000/svg"><clipPath id="p.0"><path d="m0 0l123.86352 0l0 118.32284l-123.86352 0l0 -118.32284z" clip-rule="nonzero"/></clipPath><g clip-path="url(#p.0)"><path fill="#000000" fill-opacity="0.0" d="m0 0l123.86352 0l0 118.32284l-123.86352 0z" fill-rule="evenodd"/><path fill="#000000" fill-opacity="0.0" d="m-23.293962 -24.524935l165.88976 0l0 174.51968l-165.88976 0z" fill-rule="evenodd"/><path fill="#ffefd6" d="m20.807173 66.54257q-3.25 0 -5.531251 -4.875q-2.28125 -4.875 -2.28125 -11.9375l0 -26.625002q0 -0.9375 2.65625 -2.6875q2.656251 -1.75 6.687501 -3.71875q4.03125 -1.96875 8.21875 -3.78125q4.187498 -1.8125 7.343748 -2.96875q3.15625 -1.15625 3.96875 -1.15625q1.5625 0 4.375 5.125q0.3125 0.625 0.78125 1.5q0.46875 0.875 1.09375 1.9375q0.625 1.0625 1.09375 2.0q0.46875 0.9375 0.84375 1.625q1.6875 3.0625 4.25 3.0625l0 2.5625q-1.0 0.4375 -2.375 1.125q-1.375 0.6875 -3.125 1.5625q-8.125 4.437502 -8.6875 4.437502q-1.9375 0 -4.8125 -7.562502q-2.875 -7.5 -4.687498 -7.5q-2.3125 0 -2.3125 3.8125l0 28.562502q0 5.125 2.3125 5.125q0.5625 0 7.937498 -3.375q7.5 -3.3125 9.0 -3.3125q3.125 0 5.4375 4.9375q2.3125 4.875 2.3125 12.625l0 27.25q0 1.0 -2.90625 2.71875q-2.90625 1.71875 -7.3125 3.71875q-4.40625 2.0 -8.96875 3.78125q-4.562498 1.78125 -7.968748 2.9375q-3.40625 1.15625 -4.28125 1.15625q-1.375 0 -2.6875 -1.78125q-1.3125 -1.78125 -2.53125 -4.4375q-1.21875 -2.65625 -2.40625 -5.3125q-1.187501 -2.65625 -2.375001 -4.4375q-1.1875 -1.78125 -2.4375 -1.78125l0 -2.5625q1.0625 -0.4375 2.40625 -1.125q1.34375 -0.6875 2.968751 -1.5625q8.1875 -4.5 8.8125 -4.5q1.9375 0 5.5 8.8125q3.437498 8.875 5.249998 8.875q1.3125 0 2.46875 -1.03125q1.15625 -1.03125 1.15625 -2.84375l0 -28.75q0 -5.8125 -3.1875 -5.8125q-1.125 0 -8.062498 3.0625q-7.125 3.125 -7.9375 3.125zm64.25 -45.3125q-1.25 0 -2.3125 1.25l0 52.875q0 5.375 0.625 8.625q0.625 3.25 2.8125 6.5q4.25 6.125 19.3125 6.125l0 3.6875q-0.5625 0 -9.4375 3.5q-8.875 3.5625 -10.75 3.5625q-3.1875 0 -6.375 -2.0q-3.1875 -2.0 -5.8125 -5.34375q-2.625 -3.34375 -4.1875 -7.40625q-1.5625 -4.0625 -1.5625 -8.1875l0 -63.875q0 -0.375 2.90625 -1.65625q2.90625 -1.28125 7.3125 -2.96875q4.40625 -1.6875 8.96875 -3.34375q4.5625 -1.65625 8.0 -2.71875q3.4375 -1.0625 4.3125 -1.0625q0.5625 0 1.28125 2.0625q0.71875 2.0625 1.46875 5.03125q0.75 2.96875 1.4375 5.59375q1.3125 5.25 2.78125 7.75q1.46875 2.5 5.59375 2.5l0 2.562502q-2.875 1.1875 -9.5625 4.5q-6.8125 3.3125 -7.25 3.3125q-1.875 0 -4.8125 -10.437502q-3.0 -10.4375 -4.75 -10.4375z" fill-rule="nonzero"/></g></svg>